<?xml version="1.0" encoding="utf-8"?>
<!-- Generator: Adobe Illustrator 15.0.0, SVG Export Plug-In . SVG Version: 6.00 Build 0)  -->
<!DOCTYPE svg PUBLIC "-//W3C//DTD SVG 1.1//EN" "http://www.w3.org/Graphics/SVG/1.1/DTD/svg11.dtd">
<svg version="1.1" id="head" xmlns="http://www.w3.org/2000/svg" xmlns:xlink="http://www.w3.org/1999/xlink" x="0px" y="0px"
	 width="1600px" height="450px" viewBox="-600 0 1600 450" enable-background="new -600 0 1600 450" xml:space="preserve">
    
<path id="body" fill="#E6E7E8" d="M113.371,410c0-58.404,38.785-105.749,86.629-105.749c47.846,0,86.629,47.345,86.629,105.749"/>
<path id="hair" fill="#E6E7E8" d="M200,321.831c85.42,0,167.462,0,165.5-95.777C363.49,128.018,285.42,19,200,19
	S36.509,128.018,34.5,226.054C32.538,321.831,114.58,321.831,200,321.831z"/>
    
<path id="face" fill="#F1F2F2" d="M315.076,219.287c0,73.982-51.52,107.879-115.076,107.879
	c-63.556,0-115.077-33.896-115.077-107.879c0-73.979,51.521-133.954,115.077-133.954
	C263.557,85.333,315.076,145.308,315.076,219.287z"/>
    
<rect id="eyebrowleft" x="124.999" y="200.287" fill="#E6E7E8" width="50.001" height="10"/>
<rect id="eyebrowright" x="225" y="200.287" fill="#E6E7E8" width="50.001" height="10"/>
<ellipse id="eyeleft" fill="#E6E7E8" cx="150" cy="235.038" rx="12.5" ry="10"/>
<ellipse id="eyeright" fill="#E6E7E8" cx="250" cy="235.038" rx="12.5" ry="10"/>
    
<path id="mouth" fill="#E6E7E8" d="M227.018,265.338c0,3.373-12.096,14.254-27.018,14.254c-14.921,0-27.018-10.881-27.018-14.254
	s12.096-4.106,27.018-4.106C214.922,261.23,227.018,261.963,227.018,265.338z"/>
<path id="nose" fill="#E6E7E8" d="M208.375,243.466c0,1.046-3.75,4.418-8.375,4.418s-8.375-3.372-8.375-4.418
	s3.75-1.272,8.375-1.272S208.375,242.421,208.375,243.466z"/>
<g id="Bangs">
	
		<ellipse transform="matrix(-0.866 0.5 -0.5 -0.866 380.6131 122.4824)" fill="#E6E7E8" cx="173.897" cy="112.235" rx="105.387" ry="56.924"/>
		<ellipse transform="matrix(0.6428 0.766 -0.766 0.6428 193.758 -165.1125)" fill="#E6E7E8" cx="273.93" cy="125.212" rx="73.961" ry="39.949"/>
</g>
<rect x="-600" y="410" fill="#8D6035" width="1600" height="40"/>
</svg>
